<svg width="13" height="17" viewBox="0 0 13 17" fill="none" xmlns="http://www.w3.org/2000/svg">
<path d="M2.82566 0.365675L3.72316 0.0790082C4.56316 -0.189325 5.46149 0.244841 5.82149 1.09317L6.53816 2.78317C6.85066 3.51901 6.67733 4.38484 6.10983 4.92317L4.53233 6.42151C4.62955 7.31818 4.93066 8.20068 5.43566 9.06901C5.91588 9.9089 6.55936 10.6442 7.32816 11.2315L9.22482 10.5982C9.94316 10.359 10.7257 10.6348 11.1665 11.2823L12.1932 12.7907C12.7065 13.544 12.614 14.5823 11.9782 15.2207L11.2965 15.9048C10.6182 16.5857 9.64983 16.8332 8.75316 16.5532C6.6376 15.8932 4.69233 13.934 2.91733 10.6757C1.1401 7.41179 0.512881 4.6429 1.03566 2.36901C1.25566 1.41234 1.93733 0.649841 2.82733 0.365675" fill="#111111"/>
</svg>
