<svg width="17" height="13" viewBox="0 0 17 13" fill="none" xmlns="http://www.w3.org/2000/svg">
<path d="M16.8574 3.373V10.5C16.8574 11.163 16.594 11.7989 16.1252 12.2678C15.6563 12.7366 15.0205 13 14.3574 13H3.35742C2.69438 13 2.0585 12.7366 1.58965 12.2678C1.12081 11.7989 0.857422 11.163 0.857422 10.5V3.373L8.60342 7.931C8.68038 7.97638 8.76808 8.00032 8.85742 8.00032C8.94676 8.00032 9.03447 7.97638 9.11142 7.931L16.8574 3.373ZM14.3574 3.09527e-08C14.9726 -9.6716e-05 15.5662 0.226607 16.0246 0.63674C16.4831 1.04687 16.7743 1.61164 16.8424 2.223L8.85742 6.92L0.872422 2.223C0.94058 1.61164 1.23175 1.04687 1.69022 0.63674C2.14869 0.226607 2.74228 -9.6716e-05 3.35742 3.09527e-08H14.3574Z" fill="#111111"/>
</svg>
