<svg width="18" height="19" viewBox="0 0 18 19" fill="none" xmlns="http://www.w3.org/2000/svg">
<path d="M12.429 14.2902C10.8808 15.4919 8.93291 16.0585 6.98172 15.8745C5.03053 15.6906 3.22276 14.7701 1.92639 13.3002C0.630021 11.8304 -0.0575018 9.9218 0.0037699 7.96292C0.0650416 6.00404 0.870502 4.14213 2.2562 2.7562C3.64213 1.3705 5.50404 0.565042 7.46292 0.50377C9.4218 0.442498 11.3304 1.13002 12.8002 2.42639C14.2701 3.72276 15.1906 5.53053 15.3745 7.48172C15.5585 9.43291 14.9919 11.3808 13.7902 12.929L17.6939 16.8328C17.8207 16.9505 17.9134 17.1002 17.9622 17.2662C18.011 17.4322 18.0142 17.6082 17.9713 17.7758C17.9285 17.9434 17.8412 18.0964 17.7187 18.2186C17.5962 18.3407 17.443 18.4276 17.2753 18.47C17.1079 18.5128 16.932 18.5097 16.7662 18.4612C16.6004 18.4126 16.4507 18.3203 16.3328 18.1939L12.429 14.2902ZM13.482 8.20345C13.4934 7.43761 13.3525 6.67713 13.0673 5.96627C12.7821 5.25541 12.3584 4.60835 11.8209 4.06274C11.2833 3.51712 10.6427 3.08384 9.93613 2.78809C9.2296 2.49235 8.47131 2.34005 7.70538 2.34005C6.93945 2.34005 6.18116 2.49235 5.47463 2.78809C4.7681 3.08384 4.12743 3.51712 3.58989 4.06274C3.05235 4.60835 2.62866 5.25541 2.34348 5.96627C2.0583 6.67713 1.91732 7.43761 1.92874 8.20345C1.95136 9.7206 2.56992 11.1679 3.65079 12.2328C4.73166 13.2977 6.18807 13.8946 7.70538 13.8946C9.22269 13.8946 10.6791 13.2977 11.76 12.2328C12.8408 11.1679 13.4594 9.7206 13.482 8.20345Z" fill="black"/>
</svg>
