<svg width="23" height="23" viewBox="0 0 23 23" fill="none" xmlns="http://www.w3.org/2000/svg">
<path d="M18.0212 15.7867H9.65457C8.89317 15.7813 8.15572 15.52 7.5608 15.0447C6.96588 14.5695 6.54808 13.9081 6.37457 13.1667L5.04124 7.74667C4.91857 7.24341 4.91228 6.7188 5.02285 6.21274C5.13342 5.70669 5.35794 5.23251 5.67933 4.82627C6.00072 4.42003 6.41052 4.09243 6.87756 3.86839C7.3446 3.64435 7.85658 3.52976 8.37457 3.53335H19.3746C19.8925 3.52976 20.4045 3.64435 20.8716 3.86839C21.3386 4.09243 21.7484 4.42003 22.0698 4.82627C22.3912 5.23251 22.6157 5.70669 22.7263 6.21274C22.8368 6.7188 22.8306 7.24341 22.7079 7.74667L21.3746 13.18C21.1945 13.9306 20.7644 14.5976 20.155 15.0714C19.5456 15.5451 18.7931 15.7974 18.0212 15.7867ZM8.33457 5.20001C8.07106 5.20081 7.81114 5.26123 7.57429 5.37674C7.33744 5.49224 7.1298 5.65984 6.96691 5.86698C6.80402 6.07412 6.69011 6.31542 6.63371 6.57283C6.57731 6.83024 6.57988 7.09707 6.64124 7.35334L7.97457 12.7867C8.06487 13.1674 8.28136 13.5064 8.58881 13.7485C8.89626 13.9906 9.27658 14.1215 9.6679 14.12H18.0212C18.4125 14.1215 18.7929 13.9906 19.1003 13.7485C19.4078 13.5064 19.6243 13.1674 19.7146 12.7867L21.0479 7.35334C21.1106 7.09696 21.1141 6.82968 21.0583 6.57173C21.0024 6.31377 20.8886 6.07191 20.7255 5.86444C20.5623 5.65697 20.3541 5.48933 20.1166 5.37422C19.8791 5.25911 19.6185 5.19953 19.3546 5.20001H8.33457Z" fill="black"/>
<path d="M6.01479 9.16668C5.82441 9.16443 5.64053 9.09706 5.49376 8.97576C5.347 8.85447 5.24619 8.68657 5.20813 8.50002L4.01479 3.32002C3.9046 2.84814 3.63752 2.42763 3.25725 2.12729C2.87698 1.82695 2.40603 1.66456 1.92146 1.66669H0.834797C0.613784 1.66669 0.401822 1.57889 0.245542 1.42261C0.0892621 1.26633 0.00146484 1.05437 0.00146484 0.833356C0.00146484 0.612342 0.0892621 0.400381 0.245542 0.244101C0.401822 0.0878205 0.613784 2.32447e-05 0.834797 2.32447e-05H1.92146C2.78266 -0.00298523 3.61943 0.286118 4.2951 0.820112C4.97077 1.35411 5.44539 2.10143 5.64146 2.94002L6.82813 8.12002C6.85381 8.22642 6.85811 8.33686 6.84077 8.44493C6.82343 8.55301 6.7848 8.65657 6.72713 8.74959C6.66945 8.84262 6.59387 8.92327 6.50478 8.98686C6.41568 9.05045 6.31485 9.09571 6.20813 9.12002C6.14548 9.14227 6.08069 9.15791 6.01479 9.16668ZM9.78146 23C9.25404 23 8.73847 22.8436 8.29994 22.5506C7.86141 22.2576 7.51961 21.8411 7.31778 21.3538C7.11595 20.8666 7.06314 20.3304 7.16603 19.8131C7.26892 19.2958 7.5229 18.8207 7.89584 18.4477C8.26878 18.0748 8.74393 17.8208 9.26122 17.7179C9.7785 17.615 10.3147 17.6678 10.8019 17.8697C11.2892 18.0715 11.7057 18.4133 11.9987 18.8518C12.2917 19.2903 12.4481 19.8059 12.4481 20.3333C12.4481 21.0406 12.1672 21.7189 11.6671 22.219C11.167 22.719 10.4887 23 9.78146 23ZM9.78146 19.3067C9.58104 19.3067 9.38512 19.3661 9.21848 19.4774C9.05184 19.5888 8.92196 19.7471 8.84526 19.9322C8.76856 20.1174 8.7485 20.3211 8.78759 20.5177C8.82669 20.7143 8.9232 20.8948 9.06492 21.0365C9.20664 21.1783 9.3872 21.2748 9.58376 21.3139C9.78033 21.353 9.98408 21.3329 10.1692 21.2562C10.3544 21.1795 10.5127 21.0496 10.624 20.883C10.7354 20.7163 10.7948 20.5204 10.7948 20.32C10.7948 20.0513 10.688 19.7935 10.498 19.6035C10.308 19.4134 10.0502 19.3067 9.78146 19.3067ZM18.9948 23C18.4674 23 17.9518 22.8436 17.5133 22.5506C17.0747 22.2576 16.7329 21.8411 16.5311 21.3538C16.3293 20.8666 16.2765 20.3304 16.3794 19.8131C16.4822 19.2958 16.7362 18.8207 17.1092 18.4477C17.4821 18.0748 17.9573 17.8208 18.4745 17.7179C18.9918 17.615 19.528 17.6678 20.0153 17.8697C20.5025 18.0715 20.919 18.4133 21.212 18.8518C21.505 19.2903 21.6614 19.8059 21.6614 20.3333C21.6614 21.0406 21.3805 21.7189 20.8804 22.219C20.3803 22.719 19.702 23 18.9948 23ZM18.9948 19.3067C18.7947 19.308 18.5994 19.3685 18.4336 19.4807C18.2679 19.5928 18.139 19.7515 18.0634 19.9368C17.9877 20.1221 17.9686 20.3256 18.0084 20.5217C18.0483 20.7179 18.1453 20.8978 18.2873 21.0389C18.4292 21.1799 18.6098 21.2758 18.8062 21.3143C19.0026 21.3529 19.206 21.3324 19.3908 21.2555C19.5755 21.1787 19.7334 21.0488 19.8445 20.8823C19.9555 20.7158 20.0148 20.5201 20.0148 20.32C20.0148 20.1864 19.9884 20.0541 19.937 19.9307C19.8857 19.8073 19.8104 19.6953 19.7156 19.6011C19.6208 19.5069 19.5083 19.4324 19.3846 19.3819C19.2609 19.3314 19.1284 19.3058 18.9948 19.3067Z" fill="black"/>
<path d="M18.9949 19.3067H7.88825C7.20046 19.3067 6.54083 19.0334 6.05449 18.5471C5.56815 18.0607 5.29492 17.4011 5.29492 16.7133C5.29492 16.0255 5.56815 15.3659 6.05449 14.8796C6.54083 14.3932 7.20046 14.12 7.88825 14.12H9.65492C9.87593 14.12 10.0879 14.2078 10.2442 14.3641C10.4005 14.5204 10.4883 14.7323 10.4883 14.9533C10.4883 15.1743 10.4005 15.3863 10.2442 15.5426C10.0879 15.6989 9.87593 15.7867 9.65492 15.7867H7.88825C7.64249 15.7867 7.40678 15.8843 7.233 16.0581C7.05922 16.2319 6.96159 16.4676 6.96159 16.7133C6.96159 16.9591 7.05922 17.1948 7.233 17.3686C7.40678 17.5424 7.64249 17.64 7.88825 17.64H18.9949C19.2159 17.64 19.4279 17.7278 19.5842 17.8841C19.7404 18.0403 19.8282 18.2523 19.8282 18.4733C19.8282 18.6943 19.7404 18.9063 19.5842 19.0626C19.4279 19.2189 19.2159 19.3067 18.9949 19.3067Z" fill="black"/>
</svg>
